<svg width="400" height="400" viewBox="0 0 400 400" fill="none" xmlns="http://www.w3.org/2000/svg">
<rect width="400" height="400" rx="200" fill="#2B00FF"/>
<path d="M331.736 124.207C323.098 109.357 300.289 106.013 265.68 114.457C248.705 101.42 228.235 93.691 206.857 92.2472C185.479 90.8033 164.151 95.7089 145.568 106.344C126.984 116.98 111.979 132.868 102.447 152.002C92.9154 171.136 89.2846 192.658 92.0134 213.848C60.7128 246.161 61.1645 265.301 67.2733 275.794C73.0321 285.746 85.0465 290.07 100.855 290.07C111.831 289.843 122.742 288.332 133.364 285.566C150.337 298.592 170.8 306.313 192.17 307.754C213.541 309.194 234.86 304.29 253.437 293.66C272.015 283.031 287.017 267.152 296.551 248.028C306.086 228.904 309.724 207.392 307.007 186.208C321.133 171.572 330.528 157.668 333.724 145.767C335.937 137.526 335.271 130.275 331.736 124.207ZM316.278 141.095C309.379 166.742 261.344 205.618 217.453 230.759C140.884 274.668 89.1566 277.505 82.901 266.787C81.2524 263.961 82.1671 258.635 85.4078 252.15C88.6176 246.08 92.5121 240.395 97.0157 235.206C98.9233 240.709 101.276 246.048 104.05 251.171C104.473 251.977 105.131 252.637 105.937 253.063C106.744 253.489 107.661 253.661 108.567 253.558C115.027 252.764 121.423 251.515 127.706 249.82C151.679 243.571 180.36 231.266 208.465 215.166C236.57 199.066 261.536 180.647 278.981 163.207C283.572 158.679 287.839 153.838 291.752 148.717C292.296 147.987 292.605 147.11 292.639 146.202C292.673 145.294 292.431 144.397 291.944 143.628C288.901 138.685 285.465 133.994 281.669 129.6C297.714 126.954 312.574 127.157 316.109 133.248C317.147 135.015 317.204 137.661 316.278 141.106V141.095Z" fill="white"/>
</svg>
